Stuff

Last Test Results

Params: 5x300s tests in std mode

Results:
---START---
---TEST 0---
(2762657,)
        sample rate: 9208
        total samples: 2762657
        elapsed: 300.00

---TEST 1---
(2763418,)
        sample rate: 9211
        total samples: 2763418
        elapsed: 300.00

---TEST 2---
(2763360,)
        sample rate: 9211
        total samples: 2763360
        elapsed: 300.00

---TEST 3---
(2763400,)
        sample rate: 9211
        total samples: 2763400
        elapsed: 300.00

---TEST 4---
(2763415,)
        sample rate: 9211
        total samples: 2763415
        elapsed: 300.00

---END TESTS---

---RESULTS---
Mean sample rate: 9210.4
Median sample rate: 9211.0
Sample rate max: 9211.0
Sample rate min: 9208.0
Sample rate range: 3.0
---END---